<?xml version="1.0" standalone="no"?>
<!DOCTYPE svg PUBLIC "-//W3C//DTD SVG 20010904//EN"
 "http://www.w3.org/TR/2001/REC-SVG-20010904/DTD/svg10.dtd">
<svg version="1.0" xmlns="http://www.w3.org/2000/svg"
 width="1080.000000pt" height="1080.000000pt" viewBox="0 0 1080.000000 1080.000000"
 preserveAspectRatio="xMidYMid meet">

<g transform="translate(0.000000,1080.000000) scale(0.100000,-0.100000)"
fill="#000000" stroke="none">
<path d="M2670 2195 c0 -3 11 -10 25 -15 l25 -10 0 -175 0 -175 -25 -10 c-14
-5 -25 -12 -25 -15 0 -3 34 -5 75 -5 43 0 75 4 75 10 0 6 -11 10 -25 10 -24 0
-25 2 -25 69 l0 68 56 7 c97 11 144 52 144 126 0 88 -54 120 -199 120 -56 0
-101 -2 -101 -5z m195 -29 c27 -12 36 -23 45 -56 21 -78 -16 -130 -91 -130
l-48 0 -3 96 c-2 53 -1 98 1 100 9 9 64 3 96 -10z"/>
<path d="M3095 2188 c-79 -45 -72 -136 15 -188 23 -14 56 -35 75 -47 18 -12
35 -20 37 -17 3 2 5 -16 7 -40 1 -37 -2 -47 -25 -65 -30 -24 -95 -29 -112 -8
-6 6 -14 26 -18 42 -10 46 -17 52 -25 25 -22 -77 0 -100 95 -100 130 0 185
130 83 196 -17 11 -52 34 -77 49 -25 16 -48 29 -51 28 -3 -1 -6 17 -8 39 -3
52 20 78 66 78 48 0 69 -14 76 -50 9 -42 30 -39 25 4 -2 19 0 32 4 30 4 -3 8
0 8 6 0 27 -134 42 -175 18z"/>
<path d="M3589 2176 c-26 -14 -43 -30 -43 -39 1 -9 -2 -14 -7 -11 -20 12 -41
-69 -37 -146 2 -61 8 -84 28 -113 34 -51 91 -77 169 -77 76 0 101 12 101 48 0
50 -15 56 -33 12 -15 -38 -17 -40 -59 -40 -100 0 -158 66 -158 183 0 121 42
178 138 185 l58 4 14 -41 c19 -59 30 -60 30 -3 0 57 -7 62 -101 62 -40 0 -69
-7 -100 -24z"/>
<path d="M3964 2175 c-54 -32 -77 -81 -82 -172 -3 -58 0 -81 17 -115 55 -115
220 -133 297 -33 76 101 41 288 -62 331 -53 22 -123 18 -170 -11z m146 -8 c42
-21 70 -90 70 -175 0 -122 -49 -190 -131 -179 -78 10 -112 65 -115 187 -2 92
9 124 55 161 27 22 84 25 121 6z"/>
<path d="M4300 2191 c0 -5 9 -13 20 -16 20 -6 20 -13 18 -183 -2 -133 -6 -177
-15 -178 -30 -3 -33 -4 -33 -14 0 -6 27 -10 60 -10 33 0 60 4 60 10 0 6 -4 10
-9 10 -5 0 -17 7 -25 16 -14 13 -16 42 -15 171 0 85 3 153 5 150 3 -3 56 -83
118 -178 62 -96 121 -175 130 -177 14 -3 16 15 16 179 l0 183 28 23 27 22 -62
1 c-62 0 -83 -12 -43 -25 18 -6 20 -15 21 -88 0 -45 2 -112 5 -149 3 -42 2
-68 -5 -68 -5 0 -12 8 -16 19 -7 22 -154 244 -167 252 -5 3 -9 10 -9 15 1 5
-6 17 -14 27 -16 18 -95 25 -95 8z"/>
<path d="M4720 2144 c0 -60 15 -66 26 -9 7 37 21 43 82 36 l32 -3 -2 -177 -3
-176 -27 -3 c-58 -7 -25 -22 46 -22 73 0 114 15 59 22 -16 2 -27 6 -25 11 1 4
2 85 2 180 l0 172 47 -1 c43 -1 48 -4 58 -32 15 -46 23 -48 30 -8 13 66 13 66
-165 66 l-160 0 0 -56z"/>
<path d="M5227 2108 c-20 -51 -53 -137 -73 -191 -30 -78 -43 -101 -63 -110
-26 -11 -26 -11 12 -15 20 -2 52 -2 70 0 27 3 29 5 12 12 -11 4 -25 9 -32 11
-8 3 -5 20 9 59 l21 56 74 0 74 0 15 -35 c24 -57 22 -78 -6 -85 -41 -12 -2
-21 71 -18 l64 3 -31 17 c-17 10 -33 16 -35 13 -2 -2 -5 9 -5 23 -2 30 -125
352 -135 352 -4 0 -23 -42 -42 -92z m63 -55 c14 -43 25 -82 25 -88 0 -12 -104
-15 -111 -4 -5 9 48 169 56 169 3 0 17 -35 30 -77z"/>
<path d="M5490 2195 c0 -3 11 -10 25 -15 l25 -10 0 -173 0 -174 -27 -14 c-26
-13 -23 -14 59 -17 138 -4 202 22 217 90 9 40 -7 85 -28 80 -7 -1 -9 2 -6 8 4
6 -6 16 -24 23 -17 6 -31 14 -31 18 0 4 -27 5 -60 2 l-61 -6 3 84 3 84 31 3
c18 2 48 -3 67 -12 44 -18 56 -60 33 -108 -19 -38 -14 -46 19 -28 33 18 51 72
35 110 -18 43 -71 60 -185 60 -52 0 -95 -2 -95 -5z m200 -218 c88 -30 66 -146
-31 -162 -71 -12 -79 -4 -79 84 0 43 3 81 7 84 10 11 64 7 103 -6z"/>
<path d="M5860 2191 c0 -5 10 -11 23 -13 22 -3 22 -5 25 -181 l2 -177 -25 -10
c-14 -5 -25 -11 -25 -13 0 -3 32 -5 70 -6 66 -1 93 11 50 22 -19 5 -20 14 -20
176 0 94 0 174 0 179 -1 4 8 8 20 10 11 2 20 8 20 13 0 5 -31 9 -70 9 -38 0
-70 -4 -70 -9z"/>
<path d="M6050 2195 c0 -3 11 -10 25 -15 l25 -10 -2 -177 c-3 -176 -3 -178
-25 -181 -13 -2 -23 -8 -23 -13 0 -5 62 -9 145 -9 l145 0 0 48 c0 72 -14 83
-35 25 l-17 -48 -72 3 -71 3 0 175 0 176 28 5 c52 11 26 23 -48 23 -41 0 -75
-2 -75 -5z"/>
<path d="M6390 2195 c0 -3 11 -10 25 -15 l25 -10 0 -175 0 -175 -25 -10 c-41
-16 -29 -21 45 -19 39 1 70 6 70 10 0 5 -9 9 -20 9 -19 0 -20 7 -20 181 0 172
1 181 20 186 40 11 18 20 -50 22 -38 1 -70 -1 -70 -4z"/>
<path d="M6580 2196 c0 -4 11 -11 25 -16 l25 -10 0 -175 0 -175 -27 -13 c-25
-11 -18 -12 65 -15 116 -4 166 10 213 57 44 44 63 105 56 177 -7 69 -29 109
-79 142 -38 25 -51 27 -160 31 -65 2 -118 0 -118 -3z m226 -37 c19 -11 38 -18
44 -14 6 3 7 0 4 -10 -4 -8 -1 -21 5 -29 20 -24 30 -108 19 -166 -13 -71 -55
-115 -120 -125 -87 -13 -83 -22 -86 170 -1 93 0 175 2 182 8 21 94 16 132 -8z"/>
<path d="M7162 2173 c-6 -16 -31 -80 -55 -143 -24 -63 -52 -137 -62 -163 -12
-32 -26 -52 -42 -58 -37 -14 -27 -18 42 -18 37 1 63 5 59 10 -3 5 -14 9 -25 9
-23 0 -24 12 -2 73 l17 47 63 0 c35 0 66 1 71 3 7 2 35 -51 47 -90 5 -18 1
-25 -19 -33 -14 -5 -26 -12 -26 -15 0 -3 34 -5 75 -5 41 0 75 4 75 9 0 5 -10
11 -22 13 -19 2 -30 20 -57 90 -19 50 -38 85 -44 81 -6 -4 -7 -1 -3 6 9 13
-61 211 -74 211 -4 0 -12 -12 -18 -27z m38 -120 c13 -43 24 -82 24 -88 1 -11
-102 -16 -109 -5 -5 8 47 170 55 170 3 0 17 -35 30 -77z"/>
<path d="M7410 2191 c0 -5 9 -11 20 -14 20 -5 20 -12 18 -184 -3 -176 -3 -178
-25 -181 -13 -2 -23 -8 -23 -13 0 -13 176 -11 224 2 106 29 167 175 121 286
-37 87 -89 112 -232 113 -57 0 -103 -4 -103 -9z m229 -40 c87 -62 86 -249 -3
-315 -19 -15 -42 -21 -84 -21 l-57 0 -3 170 c-1 93 0 176 3 184 8 20 107 8
144 -18z"/>
<path d="M7810 2195 c0 -3 11 -10 25 -15 l24 -9 3 -175 3 -176 -27 -9 c-16 -6
-28 -12 -28 -15 0 -4 63 -6 140 -6 l140 0 0 45 c0 53 -11 58 -28 13 l-11 -33
-71 3 -70 4 0 84 0 84 50 0 c44 0 51 -3 64 -27 15 -27 15 -27 15 32 0 54 -1
58 -14 41 -8 -10 -13 -22 -11 -25 2 -3 -20 -4 -49 -3 l-54 4 -3 78 -3 79 68 3
69 3 13 -32 c19 -45 25 -41 25 12 l0 45 -135 0 c-74 0 -135 -2 -135 -5z"/>
<path d="M6511 1560 c-18 -16 -32 -33 -29 -40 2 -6 20 3 43 23 21 18 34 36 29
39 -5 3 -24 -7 -43 -22z"/>
<path d="M4292 1538 c-17 -17 -15 -33 3 -18 11 9 22 9 50 -2 33 -11 38 -11 51
6 8 11 12 22 9 25 -3 2 -11 -4 -19 -14 -13 -18 -15 -18 -39 -2 -31 20 -39 21
-55 5z"/>
<path d="M3096 1470 c-103 -32 -135 -179 -55 -259 45 -46 100 -50 187 -15 6 3
12 -1 12 -10 0 -9 7 -16 15 -16 13 0 15 12 13 68 l-3 67 -57 3 c-47 2 -58 0
-58 -13 0 -11 11 -15 45 -15 38 0 45 -3 45 -20 0 -33 -57 -62 -109 -57 -60 7
-92 40 -98 104 -7 64 16 109 63 129 47 20 110 4 126 -32 19 -40 38 -30 38 21
0 33 -4 45 -15 45 -8 0 -15 -7 -15 -15 0 -14 -3 -14 -22 -1 -32 20 -78 26
-112 16z"/>
<path d="M3671 1469 c-39 -8 -57 -25 -66 -59 -9 -39 26 -76 87 -95 28 -8 62
-22 75 -30 47 -31 18 -85 -45 -85 -44 0 -79 22 -92 56 -5 13 -17 24 -25 24
-13 0 -15 -10 -13 -52 2 -30 8 -53 16 -56 7 -2 12 5 12 17 0 26 2 26 42 1 72
-43 167 -9 168 61 0 36 -26 56 -112 88 -68 25 -73 29 -73 56 0 23 7 33 28 43
39 19 100 -3 105 -36 2 -15 9 -22 20 -20 12 2 17 14 17 42 0 40 -12 57 -25 36
-4 -7 -13 -9 -19 -5 -25 15 -68 21 -100 14z"/>
<path d="M4651 1470 c-124 -28 -144 -222 -29 -281 103 -53 208 16 208 136 0
103 -79 167 -179 145z m89 -36 c56 -34 77 -112 45 -174 -21 -40 -53 -60 -98
-60 -31 0 -46 7 -73 34 -29 29 -34 41 -34 80 0 105 82 166 160 120z"/>
<path d="M5125 1469 c-65 -20 -98 -68 -98 -144 0 -90 59 -155 141 -155 64 0
135 50 116 82 -5 8 -10 7 -18 -3 -36 -47 -94 -61 -146 -34 -41 21 -60 53 -60
103 0 58 24 100 67 118 43 18 93 5 122 -32 28 -36 41 -30 41 21 0 33 -4 45
-15 45 -8 0 -15 -7 -15 -16 0 -15 -2 -15 -23 -1 -31 20 -77 27 -112 16z"/>
<path d="M5451 1470 c-124 -28 -144 -222 -29 -281 103 -53 208 16 208 136 0
103 -79 167 -179 145z m83 -35 c60 -29 84 -111 51 -175 -21 -40 -53 -60 -98
-60 -31 0 -46 7 -73 34 -29 29 -34 41 -34 80 0 60 23 104 63 121 41 18 52 18
91 0z"/>
<path d="M3310 1460 c0 -5 9 -10 20 -10 19 0 20 -7 20 -125 0 -120 -1 -125
-21 -125 -12 0 -19 -5 -17 -12 3 -9 38 -14 116 -16 104 -2 111 -1 117 18 7 23
-2 60 -16 60 -5 0 -9 -11 -9 -25 0 -24 -2 -25 -70 -25 l-70 0 0 55 0 55 60 0
c59 0 79 13 40 25 -11 4 -37 5 -58 3 l-37 -3 -3 58 -3 57 71 0 c68 0 70 -1 70
-25 0 -14 5 -25 10 -25 10 0 13 7 13 35 0 8 -1 20 -2 25 -1 6 -47 10 -116 10
-70 0 -115 -4 -115 -10z"/>
<path d="M3880 1435 c0 -40 26 -50 32 -12 2 18 10 23 46 25 l42 3 0 -125 c0
-119 -1 -126 -20 -126 -11 0 -20 -7 -20 -16 0 -12 10 -14 52 -12 30 2 53 8 56
16 2 7 -5 12 -17 12 -20 0 -21 5 -21 126 l0 125 43 -3 c35 -2 43 -7 45 -25 6
-38 32 -28 32 12 l0 35 -135 0 -135 0 0 -35z"/>
<path d="M4290 1461 c0 -5 5 -11 12 -13 18 -6 -72 -239 -94 -246 -10 -2 -18
-11 -18 -18 0 -10 14 -14 50 -14 38 0 50 4 50 15 0 8 -7 15 -15 15 -18 0 -18
7 -4 49 11 30 12 31 73 31 61 0 62 0 74 -33 15 -43 15 -47 -3 -47 -8 0 -15 -7
-15 -15 0 -11 12 -15 50 -15 37 0 50 4 50 14 0 8 -8 16 -17 18 -12 2 -33 44
-68 133 l-51 130 -37 3 c-20 2 -37 -1 -37 -7z m95 -133 c7 -28 6 -28 -39 -28
-51 0 -55 6 -32 61 7 19 17 43 21 54 7 18 10 15 25 -20 10 -22 22 -52 25 -67z"/>
<path d="M5680 1460 c0 -5 9 -10 20 -10 19 0 20 -7 20 -125 0 -118 -1 -125
-20 -125 -11 0 -20 -7 -20 -15 0 -12 13 -15 55 -15 42 0 55 3 55 15 0 8 -9 15
-20 15 -19 0 -20 7 -20 106 0 58 4 103 8 100 5 -3 36 -49 70 -104 67 -106 94
-138 111 -127 7 4 11 56 11 141 0 127 1 134 20 134 11 0 20 5 20 10 0 6 -25
10 -55 10 -30 0 -55 -4 -55 -10 0 -5 9 -10 20 -10 19 0 20 -7 20 -110 0 -60
-2 -110 -4 -110 -2 0 -39 54 -81 120 -77 120 -77 120 -116 120 -21 0 -39 -4
-39 -10z"/>
<path d="M6030 1435 c0 -40 26 -50 32 -12 2 18 10 23 46 25 l42 3 0 -125 c0
-119 -1 -126 -20 -126 -11 0 -20 -7 -20 -15 0 -12 13 -15 55 -15 42 0 55 3 55
15 0 8 -9 15 -20 15 -19 0 -20 7 -20 126 l0 125 43 -3 c35 -2 43 -7 45 -25 6
-38 32 -28 32 12 l0 35 -135 0 -135 0 0 -35z"/>
<path d="M6440 1461 c0 -5 5 -11 12 -13 18 -6 -72 -240 -94 -246 -10 -2 -18
-11 -18 -18 0 -10 14 -14 50 -14 38 0 50 4 50 15 0 8 -7 15 -15 15 -18 0 -18
7 -4 49 11 30 12 31 73 31 61 0 62 0 74 -33 15 -43 15 -47 -3 -47 -8 0 -15 -7
-15 -15 0 -11 12 -15 50 -15 38 0 50 4 50 15 0 8 -8 15 -17 15 -14 0 -30 33
-68 133 l-50 132 -38 3 c-20 2 -37 -1 -37 -7z m95 -133 c7 -28 6 -28 -39 -28
-51 0 -55 6 -32 61 7 19 17 43 21 54 7 18 10 15 25 -20 10 -22 22 -52 25 -67z"/>
<path d="M6690 1460 c0 -5 9 -10 20 -10 19 0 20 -7 20 -125 0 -120 -1 -125
-21 -125 -12 0 -19 -5 -17 -12 10 -29 181 -20 218 10 31 25 32 88 1 113 -21
17 -22 20 -7 41 22 31 20 60 -5 92 -19 25 -25 26 -115 26 -56 0 -94 -4 -94
-10z m164 -20 c34 -12 44 -54 21 -80 -13 -15 -31 -20 -67 -20 l-48 0 0 55 0
55 34 0 c19 0 46 -4 60 -10z m37 -149 c14 -18 16 -28 8 -49 -14 -36 -25 -42
-86 -42 l-53 0 0 53 c0 30 3 57 8 61 4 4 29 6 56 3 35 -3 55 -11 67 -26z"/>
<path d="M6980 1460 c0 -5 9 -10 20 -10 19 0 20 -7 20 -125 0 -120 -1 -125
-21 -125 -12 0 -19 -5 -17 -12 3 -8 26 -14 56 -16 42 -2 52 0 52 12 0 9 -9 16
-20 16 -19 0 -20 7 -20 121 0 112 1 121 20 126 39 10 19 23 -35 23 -30 0 -55
-4 -55 -10z"/>
<path d="M7140 1460 c0 -5 9 -10 20 -10 19 0 20 -7 20 -125 0 -120 -1 -125
-21 -125 -12 0 -19 -5 -17 -12 3 -9 39 -14 121 -16 l117 -3 0 42 c0 43 -22 52
-28 11 -3 -20 -9 -22 -73 -22 l-69 0 0 121 c0 112 1 121 20 126 39 10 19 23
-35 23 -30 0 -55 -4 -55 -10z"/>
<path d="M7560 1460 c0 -5 9 -10 20 -10 19 0 20 -7 20 -125 0 -120 -1 -125
-21 -125 -12 0 -19 -5 -17 -12 3 -9 38 -14 116 -16 104 -2 111 -1 117 18 7 23
-2 60 -16 60 -5 0 -9 -11 -9 -25 0 -24 -2 -25 -70 -25 l-70 0 0 55 0 55 61 0
c44 0 60 3 56 13 -2 7 -24 12 -58 12 l-54 0 -3 58 -3 58 68 -3 c62 -3 68 -5
71 -26 5 -33 27 -21 27 14 l0 29 -117 3 c-76 2 -118 -1 -118 -8z"/>
<path d="M5554 879 c-126 -36 -134 -241 -12 -287 71 -27 192 17 174 63 -6 17
-8 17 -21 -3 -8 -11 -31 -26 -51 -32 -83 -28 -154 22 -154 108 0 63 28 108 76
121 44 12 96 -5 114 -38 20 -38 40 -26 40 24 0 33 -4 45 -15 45 -8 0 -15 -9
-15 -20 l0 -21 -22 21 c-12 11 -30 20 -39 20 -10 0 -23 2 -31 4 -7 2 -27 0
-44 -5z"/>
<path d="M3960 870 c0 -5 9 -10 20 -10 19 0 20 -7 20 -125 0 -120 -1 -125 -21
-125 -12 0 -19 -5 -16 -12 2 -9 24 -13 62 -13 38 0 60 4 63 13 2 8 -7 12 -27
12 -31 0 -31 0 -31 55 l0 55 55 0 c30 0 55 4 55 9 0 13 -27 21 -71 21 l-39 0
0 55 0 55 65 0 c63 0 65 -1 65 -25 0 -16 6 -25 15 -25 10 0 15 11 15 35 l0 35
-115 0 c-70 0 -115 -4 -115 -10z"/>
<path d="M4240 870 c0 -5 9 -10 20 -10 19 0 20 -7 20 -125 0 -118 -1 -125 -20
-125 -11 0 -20 -7 -20 -15 0 -12 13 -15 55 -15 42 0 55 3 55 15 0 8 -9 15 -20
15 -19 0 -20 7 -20 125 0 118 1 125 20 125 11 0 20 5 20 10 0 6 -25 10 -55 10
-30 0 -55 -4 -55 -10z"/>
<path d="M4390 870 c0 -5 9 -10 20 -10 19 0 20 -7 20 -125 0 -118 -1 -125 -20
-125 -11 0 -20 -7 -20 -15 0 -12 13 -15 55 -15 42 0 55 3 55 15 0 8 -9 15 -20
15 -19 0 -20 7 -20 105 0 63 4 105 10 105 6 0 10 -4 10 -8 0 -12 131 -215 144
-224 32 -22 36 -9 36 132 0 133 1 140 20 140 11 0 20 5 20 10 0 6 -25 10 -55
10 -30 0 -55 -4 -55 -10 0 -5 9 -10 20 -10 19 0 20 -7 20 -110 0 -60 -2 -110
-4 -110 -2 0 -39 54 -81 120 -77 120 -77 120 -116 120 -21 0 -39 -4 -39 -10z"/>
<path d="M4840 871 c0 -5 5 -11 12 -13 18 -6 -72 -240 -94 -246 -10 -2 -18
-11 -18 -18 0 -10 14 -14 50 -14 38 0 50 4 50 15 0 8 -7 15 -15 15 -18 0 -18
7 -4 49 11 30 12 31 73 31 61 0 62 0 74 -33 15 -43 15 -47 -3 -47 -8 0 -15 -7
-15 -15 0 -11 12 -15 50 -15 38 0 50 4 50 15 0 8 -8 15 -17 15 -14 0 -30 33
-68 133 l-50 132 -38 3 c-20 2 -37 -1 -37 -7z m95 -133 c7 -28 6 -28 -39 -28
-51 0 -55 6 -32 61 7 19 17 43 21 54 7 18 10 15 25 -20 10 -22 22 -52 25 -67z"/>
<path d="M5100 870 c0 -5 9 -10 20 -10 19 0 20 -7 20 -125 0 -118 -1 -125 -20
-125 -11 0 -20 -7 -20 -15 0 -12 13 -15 55 -15 42 0 55 3 55 15 0 8 -9 15 -20
15 -19 0 -20 7 -20 105 0 58 3 105 8 105 4 -1 36 -49 72 -107 70 -116 84 -133
106 -133 11 0 14 25 14 140 0 133 1 140 20 140 11 0 20 5 20 10 0 6 -25 10
-55 10 -54 0 -74 -13 -35 -23 18 -5 20 -14 20 -113 0 -127 4 -128 -94 29 -67
106 -68 107 -107 107 -21 0 -39 -4 -39 -10z"/>
<path d="M5770 870 c0 -5 9 -10 20 -10 19 0 20 -7 20 -125 0 -120 -1 -125 -21
-125 -12 0 -19 -5 -16 -12 3 -10 35 -13 118 -13 l114 0 0 34 c0 19 -6 36 -12
38 -8 3 -13 -5 -13 -21 0 -25 -1 -26 -70 -26 l-70 0 0 55 0 55 60 0 c59 0 79
13 40 25 -11 4 -37 5 -58 3 l-37 -3 0 55 0 55 68 3 c66 3 67 3 67 -23 0 -38
23 -26 27 13 l4 32 -120 0 c-74 0 -121 -4 -121 -10z"/>
<path d="M6050 870 c0 -5 9 -10 20 -10 19 0 20 -7 20 -124 0 -117 -1 -124 -21
-129 -37 -10 -10 -27 42 -27 37 0 49 4 49 15 0 8 -9 15 -20 15 -19 0 -20 7
-20 121 0 112 1 121 20 126 39 10 19 23 -35 23 -30 0 -55 -4 -55 -10z"/>
<path d="M6200 870 c0 -5 9 -10 20 -10 19 0 20 -7 20 -125 0 -118 -1 -125 -20
-125 -11 0 -20 -7 -20 -15 0 -12 13 -15 58 -15 46 0 59 3 59 15 0 9 -10 15
-24 15 -21 0 -23 5 -23 45 0 50 13 62 55 51 17 -4 33 -23 51 -59 15 -28 32
-55 38 -59 19 -13 46 -9 46 7 0 8 -7 15 -15 15 -8 0 -26 23 -40 50 l-26 50 28
24 c38 33 38 89 -1 122 -24 21 -37 24 -117 24 -53 0 -89 -4 -89 -10z m165 -20
c31 -12 45 -46 33 -81 -10 -29 -32 -39 -90 -39 l-38 0 0 65 0 65 34 0 c19 0
46 -4 61 -10z"/>
<path d="M6610 871 c0 -5 5 -11 12 -13 18 -6 -72 -239 -94 -246 -10 -2 -18
-11 -18 -18 0 -10 14 -14 50 -14 38 0 50 4 50 15 0 8 -7 15 -15 15 -18 0 -18
7 -4 49 11 30 12 31 73 31 61 0 62 0 74 -33 15 -43 15 -47 -3 -47 -8 0 -15 -7
-15 -15 0 -11 12 -15 50 -15 38 0 50 4 50 15 0 8 -8 15 -17 15 -14 0 -30 33
-68 133 l-50 132 -38 3 c-20 2 -37 -1 -37 -7z m95 -133 c7 -28 7 -28 -43 -28
l-51 0 13 38 c8 20 19 51 26 67 l13 30 17 -40 c10 -22 22 -52 25 -67z"/>
</g>
</svg>
