<?xml version="1.0" standalone="no"?>
<!DOCTYPE svg PUBLIC "-//W3C//DTD SVG 20010904//EN"
 "http://www.w3.org/TR/2001/REC-SVG-20010904/DTD/svg10.dtd">
<svg version="1.0" xmlns="http://www.w3.org/2000/svg"
 width="1080.000000pt" height="1080.000000pt" viewBox="0 0 1080.000000 1080.000000"
 preserveAspectRatio="xMidYMid meet">

<g transform="translate(0.000000,1080.000000) scale(0.100000,-0.100000)"
fill="#000000" stroke="none">
<path d="M3978 9838 c21 -11 22 -16 22 -131 0 -102 -3 -122 -17 -133 -16 -12
-11 -13 35 -14 33 0 51 4 47 10 -3 6 -13 10 -21 10 -12 0 -14 11 -12 46 3 46
3 46 43 50 76 7 120 64 95 124 -17 41 -43 50 -138 49 -63 0 -73 -2 -54 -11z
m146 -30 c23 -32 20 -65 -9 -94 -17 -17 -34 -24 -53 -22 -26 3 -27 5 -30 71
l-3 67 40 0 c30 0 44 -6 55 -22z"/>
<path d="M4250 9830 c-22 -22 -26 -60 -10 -90 5 -10 34 -32 65 -49 47 -27 55
-35 55 -61 0 -33 -23 -50 -69 -50 -25 0 -30 5 -36 30 -9 41 -25 38 -25 -4 0
-39 11 -46 76 -46 34 0 51 6 69 25 44 43 26 99 -43 134 -53 27 -76 55 -68 84
12 50 90 45 102 -6 l7 -32 9 28 c16 46 5 57 -57 57 -42 0 -60 -5 -75 -20z"/>
<path d="M4625 9841 c-67 -28 -91 -146 -46 -229 17 -32 63 -52 118 -52 61 0
76 10 71 46 l-4 29 -14 -27 c-11 -23 -20 -28 -50 -28 -49 0 -87 31 -101 82
-21 80 9 151 71 168 49 13 65 6 77 -33 l10 -32 8 27 c13 48 2 58 -62 57 -32 0
-67 -4 -78 -8z"/>
<path d="M4881 9837 c-56 -28 -82 -132 -52 -205 25 -60 111 -90 176 -60 36 16
65 77 65 133 0 56 -29 117 -65 133 -34 15 -93 15 -124 -1z m119 -33 c22 -22
25 -33 25 -97 0 -56 -4 -78 -20 -99 -24 -32 -40 -37 -80 -27 -43 12 -65 54
-65 126 0 67 15 102 50 120 31 15 57 8 90 -23z"/>
<path d="M5133 9832 c24 -26 25 -252 2 -252 -8 0 -15 -4 -15 -10 0 -5 19 -10
43 -10 37 1 40 2 25 14 -15 11 -18 30 -18 127 1 88 3 109 12 94 38 -71 154
-235 165 -235 10 0 13 28 13 131 0 114 2 134 18 145 15 12 12 13 -25 14 -46 0
-52 -6 -28 -24 13 -9 15 -30 13 -110 l-3 -98 -75 116 c-71 110 -77 116 -109
116 -32 0 -33 -1 -18 -18z"/>
<path d="M5420 9810 c0 -48 7 -51 21 -10 9 25 16 30 45 30 l34 0 0 -123 c0
-119 -1 -124 -22 -135 -19 -9 -12 -11 42 -11 54 0 61 2 43 11 -22 11 -23 16
-23 135 l0 123 34 0 c30 0 35 -4 41 -31 8 -37 25 -21 25 24 l0 27 -120 0 -120
0 0 -40z"/>
<path d="M5746 9723 c-26 -71 -57 -136 -68 -145 -20 -18 -19 -18 28 -18 44 1
47 2 31 15 -17 12 -18 18 -7 49 11 35 13 36 64 36 52 0 53 -1 64 -37 10 -31 9
-38 -6 -49 -15 -12 -9 -13 38 -13 45 0 52 2 38 12 -10 6 -41 71 -69 144 -29
73 -55 133 -59 133 -3 0 -28 -57 -54 -127z m75 5 l19 -48 -44 0 -45 0 21 62
c12 35 24 56 26 48 3 -8 13 -36 23 -62z"/>
<path d="M5978 9838 c21 -11 22 -16 22 -133 0 -116 -1 -122 -22 -133 -19 -10
-7 -11 64 -9 76 2 90 5 112 26 16 15 26 35 26 53 0 28 -30 68 -51 68 -7 0 0
11 15 25 25 23 33 59 18 81 -16 24 -54 34 -129 33 -64 0 -74 -2 -55 -11z m140
-20 c17 -17 15 -58 -5 -80 -9 -10 -30 -18 -50 -18 l-33 0 0 55 0 55 38 0 c21
0 43 -5 50 -12z m0 -134 c26 -18 30 -65 6 -88 -9 -9 -32 -16 -55 -16 l-39 0 0
60 0 60 33 0 c18 0 43 -7 55 -16z"/>
<path d="M6235 9837 c18 -11 21 -24 24 -133 3 -118 2 -120 -21 -131 -20 -10
-16 -12 32 -12 48 0 53 1 38 13 -15 11 -18 31 -18 131 0 100 3 120 18 131 15
12 10 13 -38 13 -48 0 -52 -1 -35 -12z"/>
<path d="M6378 9838 c21 -11 22 -16 22 -133 0 -117 -1 -122 -22 -133 -18 -8 0
-11 85 -11 l107 -1 0 40 c0 47 -16 53 -25 10 -6 -29 -9 -30 -61 -30 l-54 0 0
125 c0 102 3 125 14 125 8 0 18 5 21 10 4 6 -16 10 -52 9 -49 0 -55 -2 -35
-11z"/>
<path d="M6605 9840 c3 -5 12 -10 19 -10 10 0 13 -28 14 -124 0 -117 -1 -124
-22 -134 -17 -9 -11 -11 34 -11 48 0 53 1 38 13 -15 11 -18 31 -18 131 0 100
3 120 18 131 15 12 10 13 -36 14 -33 0 -51 -4 -47 -10z"/>
<path d="M6748 9838 c21 -11 22 -16 22 -133 0 -117 -1 -122 -22 -133 -19 -9
-8 -11 55 -11 54 -1 90 4 113 15 70 33 97 147 51 215 -33 49 -60 59 -157 58
-69 0 -81 -2 -62 -11z m159 -30 c31 -35 43 -63 43 -103 0 -40 -12 -68 -43
-102 -15 -17 -32 -23 -64 -23 l-43 0 0 125 0 125 43 0 c32 0 49 -6 64 -22z"/>
<path d="M7106 9723 c-26 -71 -57 -136 -68 -145 -20 -18 -19 -18 28 -18 44 1
47 2 31 15 -17 12 -18 18 -7 49 11 35 13 36 64 36 52 0 53 -1 64 -37 10 -31 9
-38 -6 -49 -15 -12 -9 -13 38 -13 45 0 52 2 38 12 -10 6 -41 71 -69 144 -29
73 -55 133 -58 133 -3 0 -28 -57 -55 -127z m75 5 l19 -48 -44 0 -45 0 21 62
c12 35 24 56 26 48 3 -8 13 -36 23 -62z"/>
<path d="M7333 9836 c14 -11 17 -31 17 -133 0 -115 -1 -120 -22 -131 -19 -9
-8 -11 57 -11 95 -1 139 17 167 70 38 71 12 174 -52 206 -14 7 -60 13 -105 13
-69 -1 -78 -3 -62 -14z m154 -28 c44 -48 54 -98 32 -155 -19 -51 -48 -73 -96
-73 l-43 0 0 125 0 125 43 0 c32 0 49 -6 64 -22z"/>
<path d="M7628 9838 c21 -11 22 -16 22 -133 0 -117 -1 -122 -22 -133 -18 -9
-1 -11 81 -9 110 2 118 6 101 52 -7 18 -8 18 -15 -7 -7 -26 -11 -28 -62 -28
l-54 0 3 58 c3 57 3 57 36 60 24 2 38 -2 48 -15 12 -16 13 -13 13 27 0 40 -1
43 -13 28 -8 -12 -27 -18 -50 -18 l-36 0 0 55 0 55 49 0 c41 0 51 -4 56 -20 8
-26 25 -16 25 16 0 24 0 24 -102 23 -82 0 -98 -3 -80 -11z"/>
<path d="M5705 9350 c-10 -11 -14 -20 -8 -20 5 0 18 9 28 20 10 11 14 20 8 20
-5 0 -18 -9 -28 -20z"/>
<path d="M4285 9335 c22 -17 37 -15 43 6 3 11 2 12 -6 0 -7 -10 -14 -11 -33
-1 -23 11 -23 10 -4 -5z"/>
<path d="M3469 9285 c-96 -52 -28 -215 74 -177 21 8 33 9 35 2 9 -26 22 -5 22
35 l0 45 -41 0 c-24 0 -38 -4 -34 -10 3 -5 17 -10 31 -10 29 0 32 -25 5 -40
-30 -15 -66 -12 -92 9 -18 14 -24 29 -24 61 0 32 6 47 24 61 30 25 66 24 91
-1 27 -27 30 -25 30 13 0 21 -3 28 -9 18 -6 -10 -13 -11 -29 -2 -27 14 -51 13
-83 -4z"/>
<path d="M3630 9290 c0 -5 5 -10 10 -10 6 0 10 -33 10 -80 0 -47 -4 -80 -10
-80 -5 0 -10 -4 -10 -10 0 -6 30 -10 70 -10 55 0 72 3 77 16 3 8 1 20 -6 27
-8 8 -11 7 -11 -6 0 -13 -9 -17 -45 -17 -45 0 -45 0 -45 35 0 33 2 35 35 35
19 0 35 5 35 10 0 6 -16 10 -35 10 -33 0 -35 2 -35 35 0 35 0 35 45 35 33 0
45 -4 45 -15 0 -8 5 -15 10 -15 6 0 10 11 10 25 0 24 -2 25 -75 25 -43 0 -75
-4 -75 -10z"/>
<path d="M3842 9284 c-48 -33 -20 -79 61 -98 33 -8 44 -30 27 -51 -20 -24 -66
-18 -88 10 -26 33 -32 32 -32 -10 0 -19 5 -35 10 -35 6 0 10 7 10 16 0 14 2
14 22 0 47 -33 108 -11 108 39 0 28 -9 35 -70 55 -37 12 -45 19 -45 40 0 21 5
26 32 28 24 2 35 -2 45 -17 18 -30 28 -26 28 12 0 21 -3 28 -9 18 -6 -10 -13
-11 -29 -2 -28 15 -43 14 -70 -5z"/>
<path d="M4001 9273 c1 -17 3 -21 6 -10 3 11 14 17 34 17 l29 0 0 -80 c0 -47
-4 -80 -10 -80 -5 0 -10 -4 -10 -10 0 -5 14 -10 30 -10 17 0 30 5 30 10 0 6
-4 10 -10 10 -6 0 -10 33 -10 80 l0 80 30 0 c20 0 30 -5 30 -15 0 -8 5 -15 11
-15 6 0 9 10 7 23 -3 20 -9 22 -85 25 l-83 3 1 -28z"/>
<path d="M4264 9285 c8 -22 -45 -165 -61 -165 -7 0 -13 -4 -13 -10 0 -5 16
-10 35 -10 33 0 48 14 24 22 -7 2 -9 13 -5 26 6 18 15 22 51 22 36 0 44 -4 49
-22 3 -13 1 -24 -4 -26 -22 -8 -8 -22 20 -22 28 0 42 14 20 22 -5 2 -24 41
-43 88 -27 70 -37 86 -56 88 -19 3 -22 0 -17 -13z m49 -57 l16 -38 -34 0 c-23
0 -33 4 -30 13 28 80 26 79 48 25z"/>
<path d="M4481 9286 c-67 -37 -65 -143 4 -174 34 -16 50 -15 84 3 63 32 63
138 1 170 -35 18 -57 18 -89 1z m90 -25 c18 -14 24 -29 24 -61 0 -32 -6 -47
-24 -61 -52 -42 -116 -9 -116 61 0 47 29 80 70 80 13 0 33 -9 46 -19z"/>
<path d="M4788 9285 c-15 -9 -31 -30 -38 -50 -25 -75 31 -145 105 -131 36 7
81 46 53 46 -9 0 -21 -7 -28 -15 -17 -21 -63 -19 -91 4 -30 24 -33 89 -5 120
24 27 70 27 96 1 27 -27 30 -25 29 13 -1 17 -3 25 -6 15 -4 -14 -7 -15 -31 -2
-34 17 -50 17 -84 -1z"/>
<path d="M4998 9285 c-35 -19 -48 -44 -48 -89 0 -53 37 -91 90 -91 34 0 47 6
66 28 69 80 -19 202 -108 152z m92 -25 c13 -13 20 -33 20 -60 0 -49 -27 -80
-70 -80 -43 0 -70 31 -70 80 0 49 27 80 70 80 17 0 39 -9 50 -20z"/>
<path d="M5170 9290 c0 -5 7 -10 15 -10 12 0 15 -16 15 -80 0 -64 -3 -80 -15
-80 -8 0 -15 -4 -15 -10 0 -5 16 -10 35 -10 34 0 48 14 23 22 -13 5 -22 128
-9 128 3 0 27 -34 54 -75 26 -41 52 -75 57 -75 6 0 10 38 10 90 0 73 3 90 15
90 8 0 15 5 15 10 0 6 -16 10 -35 10 -19 0 -35 -4 -35 -10 0 -5 5 -10 10 -10
6 0 10 -31 10 -72 l0 -73 -38 62 c-22 35 -47 72 -57 83 -19 21 -55 27 -55 10z"/>
<path d="M5401 9273 c1 -17 3 -21 6 -10 3 11 14 17 34 17 l29 0 0 -80 c0 -47
-4 -80 -10 -80 -5 0 -10 -4 -10 -10 0 -5 14 -10 30 -10 17 0 30 5 30 10 0 6
-4 10 -10 10 -6 0 -10 33 -10 80 l0 80 30 0 c20 0 30 -5 30 -15 0 -8 5 -15 10
-15 6 0 10 11 10 25 0 25 -1 25 -85 25 l-85 0 1 -27z"/>
<path d="M5660 9290 c0 -5 4 -10 10 -10 12 0 -39 -141 -56 -156 -21 -17 -17
-24 16 -24 28 0 42 14 20 22 -5 2 -7 13 -4 26 5 18 13 22 49 22 35 0 44 -4 53
-25 7 -15 8 -25 2 -25 -6 0 -10 -4 -10 -10 0 -5 14 -10 30 -10 31 0 41 14 17
23 -8 3 -24 34 -37 69 -12 34 -29 73 -37 86 -13 22 -53 31 -53 12z m55 -56
c19 -46 20 -44 -15 -44 -16 0 -30 3 -30 7 0 9 23 73 27 73 1 0 10 -16 18 -36z"/>
<path d="M5830 9290 c0 -5 7 -10 15 -10 12 0 15 -16 15 -80 0 -64 -3 -80 -15
-80 -8 0 -15 -4 -15 -10 0 -13 91 -13 124 0 34 12 44 54 20 81 -13 15 -15 22
-6 31 17 17 15 35 -8 58 -15 15 -33 20 -75 20 -30 0 -55 -4 -55 -10z m121 -26
c20 -24 -1 -49 -42 -49 -31 0 -34 3 -36 33 -1 30 1 32 32 32 18 0 38 -7 46
-16z m0 -74 c21 -12 25 -40 7 -58 -7 -7 -29 -12 -50 -12 -36 0 -38 1 -38 33 0
19 3 37 7 40 10 10 52 8 74 -3z"/>
<path d="M6020 9290 c0 -5 7 -10 15 -10 12 0 15 -16 15 -80 0 -64 -3 -80 -15
-80 -8 0 -15 -4 -15 -10 0 -5 16 -10 35 -10 36 0 47 13 20 24 -11 4 -15 22
-15 76 0 54 4 72 15 76 27 11 16 24 -20 24 -19 0 -35 -4 -35 -10z"/>
<path d="M6120 9290 c0 -5 7 -10 15 -10 12 0 15 -16 15 -80 0 -64 -3 -80 -15
-80 -8 0 -15 -4 -15 -10 0 -6 32 -10 75 -10 59 0 77 3 82 16 3 8 1 20 -6 27
-8 8 -11 7 -11 -7 0 -14 -8 -17 -47 -14 l-48 3 -3 73 c-2 58 0 73 13 78 27 11
16 24 -20 24 -19 0 -35 -4 -35 -10z"/>
<path d="M6400 9290 c0 -5 5 -10 10 -10 6 0 10 -33 10 -80 0 -47 -4 -80 -10
-80 -5 0 -10 -5 -10 -10 0 -7 27 -10 73 -8 66 3 72 5 75 26 2 12 -1 22 -7 22
-6 0 -11 -7 -11 -15 0 -11 -12 -15 -45 -15 -45 0 -45 0 -45 35 0 33 2 35 35
35 19 0 35 5 35 10 0 6 -16 10 -35 10 -33 0 -35 2 -35 35 0 35 0 35 45 35 33
0 45 -4 45 -15 0 -8 5 -15 11 -15 6 0 9 10 7 23 -3 20 -9 22 -75 25 -46 2 -73
-1 -73 -8z"/>
<path d="M6670 9290 c0 -5 5 -10 10 -10 6 0 10 -33 10 -80 0 -47 -4 -80 -10
-80 -5 0 -10 -4 -10 -10 0 -5 16 -10 35 -10 19 0 35 5 35 10 0 6 -7 10 -15 10
-10 0 -15 11 -15 35 0 33 2 35 35 35 19 0 35 5 35 10 0 6 -16 10 -35 10 -33 0
-35 2 -35 35 0 34 1 35 40 35 29 0 40 -4 40 -15 0 -8 5 -15 10 -15 6 0 10 11
10 25 0 24 -2 25 -70 25 -40 0 -70 -4 -70 -10z"/>
<path d="M6840 9290 c0 -5 7 -10 15 -10 12 0 15 -16 15 -80 0 -64 -3 -80 -15
-80 -8 0 -15 -4 -15 -10 0 -5 16 -10 35 -10 36 0 47 13 20 24 -11 4 -15 22
-15 76 0 54 4 72 15 76 27 11 16 24 -20 24 -19 0 -35 -4 -35 -10z"/>
<path d="M6940 9291 c0 -5 7 -11 15 -15 11 -4 15 -23 15 -81 0 -60 -3 -75 -15
-75 -8 0 -15 -4 -15 -10 0 -5 16 -10 35 -10 36 0 47 13 19 24 -12 4 -15 19
-13 66 1 33 5 60 8 60 3 0 27 -34 54 -75 26 -41 52 -75 57 -75 6 0 10 38 10
90 0 73 3 90 15 90 8 0 15 5 15 10 0 6 -16 10 -35 10 -33 0 -48 -14 -24 -22 6
-2 9 -29 7 -68 l-3 -65 -34 55 c-19 30 -44 65 -55 78 -19 22 -56 31 -56 13z"/>
<path d="M7230 9290 c0 -5 4 -10 10 -10 12 0 -39 -141 -56 -156 -21 -17 -17
-24 16 -24 29 0 41 15 19 22 -9 3 -9 10 0 26 18 33 84 31 99 -3 7 -15 8 -25 2
-25 -6 0 -10 -4 -10 -10 0 -5 14 -10 30 -10 31 0 41 14 17 23 -8 3 -28 44 -46
91 -29 75 -35 86 -57 86 -13 0 -24 -4 -24 -10z m56 -55 c8 -20 12 -40 10 -44
-6 -9 -56 -3 -56 7 0 10 24 72 28 72 1 0 10 -16 18 -35z"/>
<path d="M7410 9290 c0 -5 5 -10 10 -10 6 0 10 -33 10 -80 0 -47 -4 -80 -10
-80 -5 0 -10 -4 -10 -10 0 -5 14 -10 30 -10 29 0 42 14 19 22 -6 2 -9 29 -7
68 l3 65 50 -77 c28 -43 56 -78 63 -78 9 0 12 25 12 90 0 53 4 90 10 90 6 0
10 5 10 10 0 6 -13 10 -29 10 -17 0 -33 -4 -36 -10 -3 -5 1 -10 9 -10 13 0 16
-13 16 -72 0 -40 -4 -68 -8 -62 -5 5 -30 42 -56 82 -32 49 -53 72 -66 72 -11
0 -20 -4 -20 -10z"/>
<path d="M7694 9290 c-32 -13 -54 -50 -54 -92 0 -77 85 -123 143 -78 33 26 29
40 -5 16 -55 -39 -118 -4 -118 66 0 55 30 82 82 75 22 -3 37 -2 32 3 -15 14
-58 20 -80 10z"/>
<path d="M7787 9278 c-7 -23 -1 -38 14 -38 5 0 9 14 9 30 0 35 -15 40 -23 8z"/>
<path d="M7840 9290 c0 -5 7 -10 15 -10 12 0 15 -16 15 -80 0 -64 -3 -80 -15
-80 -8 0 -15 -4 -15 -10 0 -6 32 -10 75 -10 73 0 75 1 75 25 0 14 -4 25 -10
25 -5 0 -10 -7 -10 -16 0 -12 -9 -14 -42 -12 -40 3 -43 5 -46 36 -3 31 -2 32
37 32 23 0 41 5 41 10 0 6 -18 10 -40 10 -39 0 -40 1 -40 35 0 35 0 35 45 35
33 0 45 -4 45 -15 0 -8 5 -15 10 -15 6 0 10 11 10 25 0 24 -2 25 -75 25 -43 0
-75 -4 -75 -10z"/>
<path d="M8030 9290 c0 -5 5 -10 10 -10 6 0 10 -33 10 -80 0 -47 -4 -80 -10
-80 -5 0 -10 -4 -10 -10 0 -5 14 -10 30 -10 17 0 30 5 30 10 0 6 -4 10 -10 10
-6 0 -10 33 -10 80 0 47 4 80 10 80 6 0 10 5 10 10 0 6 -13 10 -30 10 -16 0
-30 -4 -30 -10z"/>
<path d="M8130 9290 c0 -5 5 -10 10 -10 6 0 10 -33 10 -80 0 -47 -4 -80 -10
-80 -5 0 -10 -4 -10 -10 0 -5 16 -10 35 -10 19 0 35 5 35 10 0 6 -7 10 -15 10
-10 0 -15 10 -15 30 0 25 4 30 24 30 18 0 31 -10 47 -40 21 -37 49 -54 49 -30
0 6 -4 10 -10 10 -5 0 -17 14 -26 31 -15 29 -15 32 5 50 35 33 26 70 -22 88
-36 14 -107 14 -107 1z m124 -32 c17 -27 -5 -52 -48 -56 l-36 -3 0 41 0 41 36
-3 c22 -2 42 -10 48 -20z"/>
<path d="M8394 9285 c8 -22 -45 -165 -61 -165 -7 0 -13 -4 -13 -10 0 -5 16
-10 35 -10 33 0 48 14 24 22 -7 2 -9 13 -5 26 6 18 15 22 51 22 36 0 44 -4 49
-22 3 -13 1 -24 -4 -26 -22 -8 -8 -22 20 -22 28 0 42 14 21 22 -5 2 -24 41
-43 88 -28 69 -38 86 -57 88 -19 3 -22 0 -17 -13z m56 -82 c0 -8 -12 -13 -30
-13 -19 0 -28 4 -25 13 2 6 10 26 16 42 l11 30 14 -30 c7 -16 13 -36 14 -42z"/>
<path d="M4193 6996 c14 -11 17 -31 17 -131 0 -100 -3 -120 -17 -131 -16 -12
-11 -13 35 -14 33 0 51 4 47 10 -3 6 -13 10 -21 10 -12 0 -14 11 -12 48 3 49
3 48 61 51 37 1 87 51 87 86 0 16 -12 38 -29 56 -28 27 -34 29 -108 29 -67 -1
-76 -3 -60 -14z m140 -28 c24 -28 21 -65 -8 -94 -17 -17 -34 -24 -53 -22 -26
3 -27 6 -30 67 -2 44 1 67 10 72 19 12 60 0 81 -23z"/>
<path d="M4460 6990 c-24 -24 -25 -68 -2 -96 9 -11 38 -33 65 -48 39 -22 47
-32 47 -55 0 -31 -15 -48 -45 -51 -43 -5 -54 0 -60 30 -9 41 -25 38 -25 -4 0
-38 12 -46 71 -46 107 0 132 107 36 156 -76 38 -96 81 -53 109 36 24 73 11 82
-28 l7 -32 9 30 c13 47 5 55 -57 55 -42 0 -60 -5 -75 -20z"/>
<path d="M4828 6994 c-39 -20 -58 -64 -58 -129 0 -98 43 -145 134 -145 64 0
76 7 76 44 -1 29 -2 30 -15 12 -8 -10 -16 -24 -18 -29 -2 -6 -20 -11 -41 -10
-83 2 -132 111 -90 199 19 39 34 49 86 59 35 7 38 5 51 -26 l14 -34 8 29 c5
20 4 31 -6 37 -22 14 -111 10 -141 -7z"/>
<path d="M5091 6997 c-62 -31 -85 -150 -43 -219 52 -84 171 -77 217 12 34 66
6 183 -50 208 -34 15 -93 15 -124 -1z m115 -31 c31 -31 34 -39 34 -96 0 -122
-77 -176 -144 -101 -43 48 -37 173 11 211 36 28 60 25 99 -14z"/>
<path d="M5343 6996 c14 -11 17 -30 17 -130 0 -94 -3 -118 -15 -122 -29 -12
-14 -24 28 -24 36 1 40 2 25 13 -13 11 -17 34 -20 125 -3 106 2 133 16 96 16
-40 150 -234 162 -234 11 0 14 26 14 131 0 114 2 134 18 145 15 12 12 13 -25
14 -24 0 -43 -4 -43 -10 0 -5 7 -10 15 -10 12 0 15 -18 15 -105 0 -58 -2 -105
-3 -105 -2 0 -37 52 -78 115 -71 111 -75 115 -109 115 -31 -1 -33 -2 -17 -14z"/>
<path d="M5630 6975 c0 -40 15 -47 24 -10 5 21 12 25 41 25 l35 0 0 -123 c0
-119 -1 -124 -22 -135 -19 -9 -13 -11 37 -11 52 0 58 1 43 13 -15 11 -18 31
-18 135 l0 121 34 0 c28 0 35 -4 41 -27 5 -21 8 -24 16 -12 5 7 9 24 9 37 0
22 -2 22 -120 22 l-120 0 0 -35z"/>
<path d="M5955 6879 c-29 -76 -58 -137 -70 -145 -18 -13 -15 -14 30 -14 43 0
47 2 31 13 -17 12 -17 18 -7 50 12 36 14 37 65 37 51 0 52 -1 65 -36 11 -32
11 -37 -6 -49 -16 -13 -12 -14 37 -14 53 -1 54 0 34 17 -11 9 -42 74 -69 145
-26 70 -50 127 -54 127 -3 0 -28 -59 -56 -131z m76 9 l19 -48 -44 0 -45 0 21
62 c12 35 24 56 26 48 3 -8 13 -36 23 -62z"/>
<path d="M6193 6996 c14 -11 17 -31 17 -131 0 -100 -3 -120 -17 -131 -16 -12
-8 -13 52 -14 39 0 81 6 95 13 56 28 65 106 15 129 l-25 11 25 25 c32 32 32
65 -1 91 -22 17 -41 21 -103 21 -65 -1 -74 -2 -58 -14z m135 -18 c17 -17 15
-58 -5 -80 -9 -10 -30 -18 -50 -18 l-33 0 0 55 0 55 38 0 c21 0 43 -5 50 -12z
m-4 -129 c59 -27 30 -102 -42 -107 l-42 -3 0 60 c0 61 0 61 30 61 16 0 40 -5
54 -11z"/>
<path d="M6448 6998 c21 -11 22 -16 22 -133 0 -117 -1 -122 -22 -133 -20 -9
-15 -11 32 -11 48 0 53 1 38 13 -15 11 -18 31 -18 131 0 100 3 120 18 131 15
12 10 13 -38 13 -47 0 -52 -2 -32 -11z"/>
<path d="M6593 6996 c14 -11 17 -31 17 -133 0 -115 -1 -120 -22 -131 -18 -8 0
-11 85 -11 l107 -1 0 40 c0 47 -16 53 -25 10 -6 -29 -9 -30 -61 -30 l-54 0 0
125 c0 102 3 125 14 125 8 0 18 5 21 10 4 6 -14 10 -47 10 -46 -1 -51 -2 -35
-14z"/>
<path d="M6828 6998 c21 -11 22 -16 22 -133 0 -117 -1 -122 -22 -133 -20 -9
-15 -11 32 -11 48 0 53 1 38 13 -15 11 -18 31 -18 131 0 100 3 120 18 131 15
12 10 13 -38 13 -47 0 -52 -2 -32 -11z"/>
<path d="M6963 6996 c14 -11 17 -31 17 -133 0 -115 -1 -120 -22 -131 -19 -9
-8 -11 55 -11 98 -1 140 17 167 70 38 74 19 161 -43 199 -25 16 -50 20 -112
20 -69 -1 -78 -3 -62 -14z m144 -17 c33 -17 57 -80 50 -134 -7 -66 -46 -105
-104 -105 l-43 0 0 123 c0 68 2 126 5 129 8 8 67 0 92 -13z"/>
<path d="M7315 6879 c-29 -76 -58 -137 -70 -145 -18 -13 -15 -14 30 -14 43 0
47 2 31 13 -17 12 -17 18 -7 50 12 36 14 37 65 37 51 0 52 -1 65 -36 11 -32
11 -37 -6 -49 -16 -13 -12 -14 37 -14 53 -1 54 0 34 17 -11 9 -42 74 -69 145
-26 70 -50 127 -54 127 -3 0 -28 -59 -56 -131z m76 9 l19 -48 -44 0 -45 0 21
62 c12 35 24 56 26 48 3 -8 13 -36 23 -62z"/>
<path d="M7538 6998 c21 -11 22 -16 22 -133 0 -117 -1 -122 -22 -133 -19 -9
-9 -11 55 -11 101 -1 147 20 171 79 32 80 14 153 -47 190 -25 16 -50 20 -117
19 -69 0 -81 -2 -62 -11z m153 -21 c41 -25 62 -122 38 -170 -25 -49 -51 -67
-96 -67 l-43 0 0 124 c0 90 3 126 13 129 15 7 66 -2 88 -16z"/>
<path d="M7843 6996 c14 -11 17 -31 17 -133 0 -115 -1 -120 -22 -131 -18 -8
-1 -11 82 -11 l106 -1 -5 38 -5 37 -10 -27 c-9 -26 -14 -28 -63 -28 l-53 0 0
60 0 60 36 0 c23 0 42 -6 50 -17 12 -16 13 -13 13 27 0 35 -2 41 -10 28 -7
-12 -22 -18 -49 -18 l-40 0 0 55 0 55 49 0 c42 0 51 -3 56 -21 6 -17 9 -19 16
-8 5 8 9 22 9 32 0 15 -11 17 -97 17 -84 -1 -95 -3 -80 -14z"/>
<path d="M5915 6520 c-10 -11 -14 -20 -8 -20 5 0 18 9 28 20 10 11 14 20 8 20
-5 0 -18 -9 -28 -20z"/>
<path d="M4510 6496 c7 -7 13 -7 20 0 6 6 3 10 -10 10 -13 0 -16 -4 -10 -10z"/>
<path d="M3679 6455 c-96 -52 -28 -215 74 -177 21 8 33 9 35 2 9 -26 22 -5 22
35 0 45 0 45 -35 45 -19 0 -35 -4 -35 -10 0 -5 11 -10 25 -10 30 0 34 -25 6
-40 -30 -15 -66 -12 -92 9 -30 24 -33 89 -5 120 25 28 81 28 98 1 18 -29 28
-25 27 13 -1 17 -3 25 -6 15 -4 -14 -7 -15 -31 -2 -33 17 -50 17 -83 -1z"/>
<path d="M3840 6460 c0 -5 5 -10 10 -10 6 0 10 -33 10 -80 0 -47 -4 -80 -10
-80 -5 0 -10 -4 -10 -10 0 -6 30 -10 70 -10 55 0 72 3 77 16 3 8 1 20 -6 27
-8 8 -11 7 -11 -6 0 -13 -9 -17 -45 -17 -45 0 -45 0 -45 35 0 33 2 35 35 35
19 0 35 5 35 10 0 6 -16 10 -35 10 -33 0 -35 2 -35 35 0 35 0 35 45 35 36 0
45 -4 45 -17 0 -12 3 -14 10 -7 6 6 8 18 4 27 -5 14 -20 17 -75 17 -39 0 -69
-4 -69 -10z"/>
<path d="M4052 6454 c-16 -11 -22 -24 -20 -42 2 -21 13 -30 58 -47 35 -13 56
-28 58 -39 8 -42 -66 -50 -96 -11 -26 33 -32 32 -32 -10 0 -19 5 -35 10 -35 6
0 10 7 10 16 0 14 2 14 22 0 44 -31 108 -7 108 40 0 24 -7 29 -92 63 -34 13
-38 47 -7 56 29 9 69 -2 69 -20 0 -8 5 -15 10 -15 6 0 10 15 10 33 0 21 -3 28
-9 18 -6 -10 -13 -11 -29 -2 -28 15 -43 14 -70 -5z"/>
<path d="M4211 6443 c1 -17 3 -21 6 -10 3 11 14 17 34 17 l29 0 0 -80 c0 -47
-4 -80 -10 -80 -5 0 -10 -4 -10 -10 0 -5 14 -10 30 -10 17 0 30 5 30 10 0 6
-4 10 -10 10 -6 0 -10 33 -10 80 l0 80 30 0 c20 0 30 -5 30 -15 0 -8 5 -15 11
-15 6 0 9 10 7 23 -3 20 -9 22 -85 25 l-83 3 1 -28z"/>
<path d="M4474 6455 c8 -23 -45 -165 -61 -165 -7 0 -13 -4 -13 -10 0 -5 16
-10 35 -10 19 0 35 5 35 10 0 6 -7 10 -15 10 -12 0 -13 4 -3 25 9 21 18 25 53
25 36 0 44 -4 49 -22 3 -13 1 -24 -4 -26 -22 -8 -8 -22 20 -22 28 0 42 14 20
22 -6 2 -25 41 -43 88 -27 69 -38 86 -57 88 -18 3 -21 0 -16 -13z m60 -96 c-6
-11 -63 3 -59 15 3 6 10 25 16 41 l11 30 18 -40 c9 -22 16 -43 14 -46z"/>
<path d="M4693 6455 c-23 -10 -35 -24 -44 -53 -33 -113 115 -183 165 -77 9 18
16 40 16 50 0 32 -30 73 -61 84 -39 13 -37 13 -76 -4z m97 -32 c39 -50 7 -133
-50 -133 -46 0 -75 31 -75 80 0 32 6 47 24 61 34 28 75 24 101 -8z"/>
<path d="M5004 6456 c-66 -29 -67 -139 -2 -172 37 -19 88 -12 113 16 21 23 9
26 -19 5 -30 -23 -74 -18 -103 11 -21 21 -24 32 -19 62 10 65 74 94 116 52 27
-27 30 -25 29 13 -1 17 -3 24 -6 15 -4 -16 -7 -16 -33 -3 -35 18 -36 18 -76 1z"/>
<path d="M5208 6455 c-80 -45 -57 -167 34 -182 32 -5 41 -1 68 25 78 78 -8
210 -102 157z m89 -27 c30 -28 32 -89 3 -118 -47 -47 -120 -9 -120 62 0 70 67
103 117 56z"/>
<path d="M5380 6461 c0 -5 7 -11 15 -15 11 -4 15 -23 15 -81 0 -60 -3 -75 -15
-75 -8 0 -15 -4 -15 -10 0 -5 16 -10 35 -10 36 0 47 13 20 24 -11 4 -15 21
-15 66 0 33 3 60 8 60 4 0 29 -34 56 -75 27 -41 52 -75 57 -75 5 0 9 41 9 90
0 73 3 90 15 90 8 0 15 5 15 10 0 6 -16 10 -35 10 -19 0 -35 -4 -35 -10 0 -5
5 -10 10 -10 6 0 10 -31 10 -72 l0 -73 -52 83 c-40 65 -56 82 -75 82 -12 0
-23 -4 -23 -9z"/>
<path d="M5611 6443 c1 -17 3 -21 6 -10 3 11 14 17 34 17 l29 0 0 -80 c0 -47
-4 -80 -10 -80 -5 0 -10 -4 -10 -10 0 -5 14 -10 30 -10 17 0 30 5 30 10 0 6
-4 10 -10 10 -6 0 -10 33 -10 80 l0 80 30 0 c20 0 30 -5 30 -15 0 -8 5 -15 11
-15 6 0 9 10 7 23 -3 20 -9 22 -85 25 l-83 3 1 -28z"/>
<path d="M5870 6460 c0 -5 4 -10 10 -10 12 0 -39 -141 -56 -156 -21 -17 -17
-24 16 -24 28 0 42 14 20 22 -5 2 -7 13 -4 26 5 19 13 22 50 22 37 0 46 -4 53
-22 6 -17 5 -24 -5 -26 -24 -6 -4 -22 27 -22 29 0 40 14 16 23 -7 3 -27 43
-45 91 -29 76 -36 86 -58 86 -13 0 -24 -4 -24 -10z m56 -56 c8 -20 12 -39 9
-43 -11 -10 -55 -8 -55 3 0 12 23 76 28 76 1 0 10 -16 18 -36z"/>
<path d="M6040 6460 c0 -5 7 -10 15 -10 12 0 15 -16 15 -80 0 -64 -3 -80 -15
-80 -8 0 -15 -4 -15 -10 0 -13 91 -13 123 -1 33 13 43 46 23 77 -12 18 -14 29
-6 43 13 26 3 50 -27 62 -32 12 -113 12 -113 -1z m121 -26 c20 -24 -1 -48 -45
-52 -35 -3 -36 -2 -36 32 0 34 2 36 34 36 18 0 39 -7 47 -16z m0 -74 c43 -23
15 -70 -41 -70 -33 0 -36 3 -38 31 -1 16 0 34 3 40 8 12 52 12 76 -1z"/>
<path d="M6230 6460 c0 -5 7 -10 15 -10 12 0 15 -16 15 -80 0 -64 -3 -80 -15
-80 -8 0 -15 -4 -15 -10 0 -5 16 -10 35 -10 19 0 35 5 35 10 0 6 -7 10 -15 10
-12 0 -15 16 -15 80 0 64 3 80 15 80 8 0 15 5 15 10 0 6 -16 10 -35 10 -19 0
-35 -4 -35 -10z"/>
<path d="M6340 6460 c0 -5 5 -10 10 -10 6 0 10 -33 10 -80 0 -47 -4 -80 -10
-80 -5 0 -10 -4 -10 -10 0 -6 32 -10 75 -10 73 0 75 1 75 25 0 14 -4 25 -10
25 -5 0 -10 -7 -10 -15 0 -11 -12 -15 -45 -15 l-45 0 0 80 c0 47 4 80 10 80 6
0 10 5 10 10 0 6 -13 10 -30 10 -16 0 -30 -4 -30 -10z"/>
<path d="M6610 6460 c0 -5 5 -10 10 -10 6 0 10 -33 10 -80 0 -47 -4 -80 -10
-80 -5 0 -10 -4 -10 -10 0 -6 30 -10 69 -10 71 0 89 11 70 41 -7 11 -9 11 -9
-3 0 -15 -9 -18 -45 -18 -45 0 -45 0 -45 35 0 33 2 35 35 35 19 0 35 5 35 10
0 6 -16 10 -35 10 -33 0 -35 2 -35 35 0 35 0 35 45 35 33 0 45 -4 45 -15 0 -8
5 -15 10 -15 11 0 13 11 4 34 -5 12 -21 16 -75 16 -39 0 -69 -4 -69 -10z"/>
<path d="M6880 6460 c0 -5 5 -10 10 -10 6 0 10 -33 10 -80 0 -47 -4 -80 -10
-80 -5 0 -10 -4 -10 -10 0 -5 16 -10 35 -10 19 0 35 5 35 10 0 6 -7 10 -15 10
-10 0 -15 11 -15 35 0 33 2 35 35 35 19 0 35 5 35 10 0 6 -16 10 -35 10 -33 0
-35 2 -35 35 0 35 0 35 45 35 35 0 43 -3 39 -15 -4 -8 -1 -15 5 -15 6 0 11 11
11 25 0 24 -2 25 -70 25 -40 0 -70 -4 -70 -10z"/>
<path d="M7050 6460 c0 -5 7 -10 15 -10 12 0 15 -16 15 -80 0 -64 -3 -80 -15
-80 -8 0 -15 -4 -15 -10 0 -5 16 -10 35 -10 19 0 35 5 35 10 0 6 -7 10 -15 10
-12 0 -15 16 -15 80 0 64 3 80 15 80 8 0 15 5 15 10 0 6 -16 10 -35 10 -19 0
-35 -4 -35 -10z"/>
<path d="M7150 6460 c0 -5 7 -10 15 -10 12 0 15 -16 15 -80 0 -64 -3 -80 -15
-80 -8 0 -15 -4 -15 -10 0 -5 16 -10 35 -10 19 0 35 5 35 10 0 6 -7 10 -15 10
-12 0 -15 14 -15 65 0 36 3 65 8 65 4 0 29 -34 56 -75 27 -41 52 -75 57 -75 5
0 9 41 9 90 0 73 3 90 15 90 8 0 15 5 15 10 0 6 -16 10 -35 10 -19 0 -35 -4
-35 -10 0 -5 5 -10 10 -10 6 0 10 -31 10 -72 l0 -71 -52 81 c-41 63 -58 82
-75 82 -13 0 -23 -4 -23 -10z"/>
<path d="M7440 6461 c0 -5 4 -11 10 -13 12 -4 -44 -151 -59 -156 -23 -8 -10
-22 19 -22 28 0 42 14 20 22 -5 2 -7 13 -4 26 5 19 13 22 50 22 37 0 46 -4 53
-22 5 -13 5 -24 0 -26 -20 -8 -7 -22 21 -22 30 0 41 14 17 23 -7 3 -26 38 -41
78 -16 41 -33 80 -39 87 -11 14 -47 16 -47 3z m56 -56 c19 -45 19 -45 -16 -45
-16 0 -30 3 -30 7 0 10 24 73 28 73 1 0 10 -16 18 -35z"/>
<path d="M7620 6460 c0 -5 5 -10 10 -10 6 0 10 -33 10 -80 0 -47 -4 -80 -10
-80 -5 0 -10 -4 -10 -10 0 -5 14 -10 30 -10 17 0 30 5 30 10 0 6 -4 10 -10 10
-6 0 -10 31 -10 73 l1 72 52 -82 c28 -46 58 -83 65 -83 9 0 12 25 12 90 0 53
4 90 10 90 6 0 10 5 10 10 0 6 -16 10 -35 10 -19 0 -35 -4 -35 -10 0 -5 7 -10
15 -10 12 0 15 -15 15 -72 0 -40 -4 -68 -8 -62 -5 5 -30 42 -56 82 -32 48 -54
72 -67 72 -10 0 -19 -4 -19 -10z"/>
<path d="M7904 6460 c-33 -13 -54 -50 -54 -95 0 -47 26 -79 73 -90 31 -8 83
10 91 31 7 18 -4 17 -28 -1 -50 -38 -116 -1 -116 65 0 70 78 107 118 55 11
-13 22 -21 26 -18 10 10 7 63 -4 63 -5 0 -10 -6 -10 -14 0 -13 -4 -13 -27 0
-32 16 -39 16 -69 4z"/>
<path d="M8050 6460 c0 -5 7 -10 15 -10 12 0 15 -16 15 -80 0 -64 -3 -80 -15
-80 -8 0 -15 -4 -15 -10 0 -6 32 -10 75 -10 73 0 75 1 75 25 0 14 -4 25 -10
25 -5 0 -10 -7 -10 -15 0 -11 -12 -15 -45 -15 -45 0 -45 0 -45 35 0 34 1 35
40 35 22 0 40 5 40 10 0 6 -18 10 -40 10 -39 0 -40 1 -40 35 0 35 0 35 45 35
33 0 45 -4 45 -15 0 -8 5 -15 10 -15 6 0 10 11 10 25 0 24 -2 25 -75 25 -43 0
-75 -4 -75 -10z"/>
<path d="M8240 6460 c0 -5 5 -10 10 -10 6 0 10 -33 10 -80 0 -47 -4 -80 -10
-80 -5 0 -10 -4 -10 -10 0 -5 14 -10 30 -10 17 0 30 5 30 10 0 6 -4 10 -10 10
-6 0 -10 33 -10 80 0 47 4 80 10 80 6 0 10 5 10 10 0 6 -13 10 -30 10 -16 0
-30 -4 -30 -10z"/>
<path d="M8340 6461 c0 -6 5 -11 10 -11 6 0 10 -33 10 -80 0 -47 -4 -80 -10
-80 -5 0 -10 -4 -10 -10 0 -5 16 -10 35 -10 19 0 35 5 35 10 0 6 -7 10 -15 10
-10 0 -15 10 -15 30 0 25 4 30 25 30 19 0 29 -10 45 -40 18 -36 50 -55 50 -30
0 6 -4 10 -8 10 -4 0 -16 14 -26 32 -17 27 -17 32 -4 42 26 19 30 51 10 76
-14 18 -32 24 -75 28 -38 3 -57 1 -57 -7z m124 -33 c17 -27 -5 -52 -48 -56
l-36 -3 0 41 0 41 36 -3 c22 -2 42 -10 48 -20z"/>
<path d="M8604 6455 c8 -23 -45 -165 -61 -165 -7 0 -13 -4 -13 -10 0 -13 57
-13 64 -1 4 5 1 11 -5 13 -7 2 -9 13 -5 26 6 18 15 22 51 22 36 0 44 -4 49
-22 3 -13 1 -24 -4 -26 -22 -8 -8 -22 20 -22 28 0 42 14 21 22 -5 2 -24 41
-43 88 -28 69 -38 86 -57 88 -19 3 -22 0 -17 -13z m60 -96 c-3 -5 -13 -5 -56
0 -8 1 -7 5 13 56 l11 30 18 -40 c9 -22 16 -43 14 -46z"/>
<path d="M2748 2201 c-3 -66 -1 -71 17 -71 12 0 16 3 9 8 -7 4 -12 33 -13 66
-1 83 -9 81 -13 -3z"/>
<path d="M2813 2250 c9 -16 9 -24 -2 -42 -13 -21 -13 -22 2 -9 21 17 22 57 2
65 -12 4 -13 2 -2 -14z"/>
<path d="M2866 2255 c-6 -17 2 -45 13 -45 11 0 51 -40 51 -51 0 -5 -10 -14
-22 -19 -14 -5 -17 -9 -8 -9 21 -1 40 19 40 40 0 9 -16 26 -36 38 -27 16 -34
26 -29 41 7 23 0 27 -9 5z"/>
<path d="M3243 2259 c27 -16 24 -93 -5 -113 -12 -9 -17 -16 -11 -16 24 0 55
53 49 84 -7 33 -23 56 -40 56 -6 0 -3 -5 7 -11z"/>
<path d="M3336 2243 c55 -86 67 -103 71 -99 5 4 -77 126 -85 126 -2 0 4 -12
14 -27z"/>
<path d="M3495 2200 c0 -40 4 -70 10 -70 6 0 9 28 7 70 -5 91 -17 91 -17 0z"/>
<path d="M3742 2245 c0 -16 2 -22 5 -12 2 9 2 23 0 30 -3 6 -5 -1 -5 -18z"/>
<path d="M3790 2263 c16 -8 12 -41 -7 -52 -10 -6 -13 -11 -7 -11 30 -1 45 60
16 66 -7 1 -8 0 -2 -3z"/>
<path d="M3865 2200 c0 -40 4 -70 10 -70 6 0 9 28 7 70 -5 91 -17 91 -17 0z"/>
<path d="M3940 2202 l-5 -73 39 3 c22 2 41 9 42 16 1 7 0 8 -3 2 -2 -5 -18
-10 -33 -10 -29 0 -29 1 -32 68 l-3 67 -5 -73z"/>
<path d="M4049 2204 c-2 -43 0 -71 6 -71 6 0 9 22 7 51 -5 88 -8 93 -13 20z"/>
<path d="M4120 2202 c-5 -67 -4 -72 15 -72 13 0 16 3 8 8 -7 4 -13 36 -15 72
l-3 65 -5 -73z"/>
<path d="M4188 2254 c24 -17 30 -61 11 -96 -8 -15 -8 -19 1 -13 42 26 23 124
-25 125 -5 0 1 -7 13 -16z"/>
<path d="M4408 2200 c-2 -39 0 -70 5 -70 4 0 7 32 7 70 0 39 -2 70 -4 70 -2 0
-6 -32 -8 -70z"/>
<path d="M4471 2265 c3 -5 11 -22 18 -37 11 -22 11 -31 -3 -60 l-16 -33 20 24
c26 31 25 73 -1 97 -12 10 -20 15 -18 9z"/>
<path d="M4548 2201 c-2 -43 1 -71 7 -71 9 0 10 128 1 138 -2 2 -6 -28 -8 -67z"/>
<path d="M3030 2241 c-5 -11 -10 -26 -10 -35 0 -21 20 -70 26 -64 2 3 0 17 -7
31 -8 19 -9 34 -1 56 12 35 8 41 -8 12z"/>
<path d="M3166 2244 c-8 -22 -7 -82 2 -87 4 -3 7 19 7 49 0 30 -1 54 -1 54 -1
0 -5 -7 -8 -16z"/>
<path d="M3643 2245 c3 -11 8 -27 12 -37 4 -11 1 -18 -12 -21 -14 -4 -14 -5 5
-6 20 -1 28 -16 23 -43 0 -5 6 -8 14 -8 12 0 13 4 5 18 -5 9 -19 40 -30 67
-12 28 -19 41 -17 30z"/>
<path d="M4313 2230 c6 -16 15 -30 18 -30 4 0 2 14 -4 30 -6 17 -15 30 -18 30
-4 0 -2 -13 4 -30z"/>
<path d="M3740 2173 c-5 -42 -5 -43 25 -42 22 1 24 3 8 6 -17 3 -23 12 -25 41
l-3 37 -5 -42z"/>
<path d="M3807 2179 c4 -13 8 -18 11 -10 2 7 -1 18 -6 23 -8 8 -9 4 -5 -13z"/>
<path d="M4322 2183 c18 -5 31 -30 22 -44 -3 -5 2 -9 11 -9 14 0 14 3 0 30 -9
17 -23 29 -33 29 -15 -1 -15 -2 0 -6z"/>
<path d="M4600 2140 l-25 -8 28 -1 c15 -1 27 4 27 9 0 6 -1 10 -2 9 -2 -1 -14
-5 -28 -9z"/>
<path d="M3083 2133 c9 -2 23 -2 30 0 6 3 -1 5 -18 5 -16 0 -22 -2 -12 -5z"/>
<path d="M3308 2133 c6 -2 18 -2 25 0 6 3 1 5 -13 5 -14 0 -19 -2 -12 -5z"/>
<path d="M4438 2133 c7 -3 16 -2 19 1 4 3 -2 6 -13 5 -11 0 -14 -3 -6 -6z"/>
<path d="M2156 1952 c-21 -24 -21 -66 2 -83 14 -11 15 -11 5 1 -18 20 -16 65
3 81 12 10 22 10 45 2 22 -8 29 -8 29 0 0 20 -65 19 -84 -1z"/>
<path d="M2268 1961 c7 -4 25 -6 39 -3 15 3 29 -1 34 -9 7 -11 9 -10 9 4 0 14
-9 17 -47 17 -30 0 -43 -4 -35 -9z"/>
<path d="M2387 1963 c-18 -17 -5 -44 28 -57 40 -17 45 -33 13 -46 -13 -5 -16
-9 -8 -9 50 -2 52 48 2 63 -17 5 -32 15 -32 23 0 19 29 28 43 14 6 -6 16 -11
22 -11 5 0 1 7 -9 15 -21 16 -48 20 -59 8z"/>
<path d="M2508 1963 c22 -4 24 -9 20 -59 -3 -49 -1 -54 17 -53 11 0 14 3 8 6
-8 3 -13 24 -13 54 0 42 3 49 19 49 11 0 22 -6 24 -12 3 -8 6 -6 6 5 1 14 -7
17 -51 16 -29 -1 -42 -4 -30 -6z"/>
<path d="M2646 1955 c4 -8 10 -12 15 -9 5 3 12 -9 15 -26 6 -25 24 -54 24 -36
0 21 -35 86 -46 86 -8 0 -11 -6 -8 -15z"/>
<path d="M2770 1950 c-11 -11 -20 -29 -20 -40 0 -23 33 -60 53 -59 6 0 2 5
-10 11 -43 21 -41 83 3 94 49 12 73 -47 37 -90 -18 -21 -18 -21 5 -2 40 34 21
106 -29 106 -10 0 -28 -9 -39 -20z"/>
<path d="M2956 1954 c-22 -21 -20 -67 2 -87 23 -21 42 -21 68 -2 17 13 16 13
-13 3 -39 -15 -63 1 -63 42 0 33 22 54 50 47 11 -3 18 -1 14 4 -8 14 -41 11
-58 -7z"/>
<path d="M3032 1950 c0 -14 2 -19 5 -12 2 6 2 18 0 25 -3 6 -5 1 -5 -13z"/>
<path d="M3086 1954 c-21 -21 -20 -68 2 -85 14 -11 15 -11 5 1 -16 18 -17 62
-1 78 17 17 44 15 62 -4 9 -8 16 -11 16 -5 0 12 -32 31 -54 31 -8 0 -22 -7
-30 -16z"/>
<path d="M3205 1910 c0 -35 4 -60 10 -60 7 0 9 15 7 34 -7 60 3 63 36 11 34
-54 39 -51 44 28 3 42 1 47 -17 46 -11 0 -14 -3 -7 -6 7 -3 12 -23 12 -51 l0
-47 -35 53 c-20 28 -39 52 -43 52 -4 0 -7 -27 -7 -60z"/>
<path d="M3358 1963 c22 -4 24 -9 20 -59 -2 -32 1 -54 7 -54 6 0 9 23 7 55 -4
50 -2 55 16 55 11 0 23 -6 25 -12 3 -8 6 -6 6 5 1 14 -7 17 -51 16 -29 -1 -42
-4 -30 -6z"/>
<path d="M3503 1950 c-2 -18 0 -18 13 -6 17 18 18 26 1 26 -7 0 -13 -9 -14
-20z"/>
<path d="M3608 1961 c7 -4 24 -6 36 -4 29 6 46 -17 24 -31 -15 -9 -15 -11 -1
-22 24 -17 9 -47 -21 -42 -14 3 -31 1 -38 -3 -8 -6 -1 -9 22 -9 49 0 59 10 56
55 -3 55 -11 65 -54 65 -24 0 -32 -3 -24 -9z"/>
<path d="M3725 1910 c0 -33 4 -60 10 -60 6 0 10 27 10 60 0 33 -4 60 -10 60
-6 0 -10 -27 -10 -60z"/>
<path d="M3785 1910 l0 -60 43 0 c34 0 42 3 41 18 0 10 -3 12 -6 5 -2 -7 -18
-13 -35 -13 l-30 0 4 55 c2 32 -1 55 -7 55 -6 0 -10 -27 -10 -60z"/>
<path d="M3948 1961 c7 -4 25 -6 39 -3 15 3 29 -1 34 -9 7 -11 9 -10 9 4 0 14
-9 17 -47 17 -30 0 -43 -4 -35 -9z"/>
<path d="M4115 1910 c0 -53 2 -60 20 -60 13 0 16 3 8 8 -6 4 -11 28 -11 55 0
43 2 47 23 47 13 0 26 -6 28 -12 3 -8 6 -6 6 5 1 13 -7 17 -36 17 l-38 0 0
-60z"/>
<path d="M4210 1966 c0 -9 30 -14 35 -6 4 6 -3 10 -14 10 -12 0 -21 -2 -21 -4z"/>
<path d="M4285 1910 c0 -54 2 -60 20 -59 11 0 14 3 8 6 -8 3 -13 23 -13 51 l0
47 30 -47 c42 -66 48 -66 52 2 3 55 1 60 -17 60 -15 0 -16 -3 -7 -9 8 -5 12
-23 10 -47 l-3 -39 -33 48 c-18 26 -36 47 -40 47 -4 0 -7 -27 -7 -60z"/>
<path d="M4453 1950 c-2 -18 0 -18 13 -6 17 18 18 26 1 26 -7 0 -13 -9 -14
-20z"/>
<path d="M4565 1910 c0 -34 4 -60 10 -60 6 0 9 19 6 46 -4 54 7 53 40 -6 13
-22 26 -40 30 -40 4 0 9 27 11 60 3 55 1 60 -17 60 -15 0 -16 -3 -7 -9 8 -5
12 -23 10 -47 l-3 -39 -33 48 c-18 26 -36 47 -40 47 -4 0 -7 -27 -7 -60z"/>
<path d="M4704 1944 c-23 -34 -9 -75 29 -88 22 -8 31 -6 45 9 16 18 16 18 0 6
-43 -32 -94 20 -68 68 12 23 49 28 68 9 8 -8 12 -8 12 -1 0 6 -7 14 -16 17
-31 12 -54 6 -70 -20z"/>
<path d="M4828 1961 c7 -4 25 -6 39 -3 15 3 29 -1 34 -9 7 -11 9 -10 9 4 0 14
-9 17 -47 17 -30 0 -43 -4 -35 -9z"/>
<path d="M4935 1960 c3 -5 12 -7 20 -3 21 7 19 13 -6 13 -11 0 -18 -4 -14 -10z"/>
<path d="M4993 1964 c4 -4 21 -7 39 -8 26 -1 33 -5 33 -21 0 -14 -9 -22 -30
-26 -20 -5 -23 -7 -9 -8 11 0 27 -12 34 -26 7 -14 17 -25 22 -25 5 0 1 11 -7
24 -13 20 -14 28 -4 44 18 29 -4 52 -49 52 -19 0 -32 -3 -29 -6z"/>
<path d="M5153 1948 c-2 -16 0 -19 6 -9 7 11 11 9 20 -8 7 -12 9 -26 6 -31 -3
-6 -1 -10 6 -10 6 0 9 -8 6 -20 -4 -15 0 -20 16 -20 13 0 17 3 11 8 -6 4 -19
31 -29 60 -20 54 -40 68 -42 30z"/>
<path d="M2636 1915 c-9 -26 -7 -32 5 -12 6 10 9 21 6 23 -2 3 -7 -2 -11 -11z"/>
<path d="M3478 1885 c-15 -34 -15 -35 6 -35 15 0 17 3 8 9 -11 7 -11 11 1 23
9 8 12 20 8 26 -4 7 -13 -2 -23 -23z"/>
<path d="M3620 1909 c0 -5 5 -7 10 -4 6 3 10 8 10 11 0 2 -4 4 -10 4 -5 0 -10
-5 -10 -11z"/>
<path d="M4429 1884 c-16 -33 -16 -34 5 -33 11 0 16 3 9 5 -19 8 -3 34 21 35
14 0 16 2 6 6 -8 3 -17 9 -20 13 -3 4 -12 -8 -21 -26z"/>
<path d="M5128 1885 c-13 -30 -13 -35 -1 -35 8 0 12 4 8 9 -3 5 1 16 9 24 8 7
11 19 7 25 -4 7 -13 -2 -23 -23z"/>
<path d="M3544 1883 c1 -26 5 -33 21 -33 11 0 15 4 10 8 -6 4 -15 18 -21 32
-11 24 -11 24 -10 -7z"/>
<path d="M4494 1883 c1 -26 5 -33 21 -33 11 0 15 4 10 8 -6 4 -15 18 -21 32
-11 24 -11 24 -10 -7z"/>
<path d="M2230 1886 c0 -8 -12 -19 -27 -24 l-28 -10 32 1 c27 2 33 6 33 25 0
12 -2 22 -5 22 -3 0 -5 -6 -5 -14z"/>
<path d="M2371 1868 c0 -13 3 -17 6 -10 2 6 10 9 16 5 7 -4 6 1 -2 10 -18 22
-21 21 -20 -5z"/>
<path d="M3150 1875 c-8 -9 -8 -15 -2 -15 12 0 26 19 19 26 -2 2 -10 -2 -17
-11z"/>
<path d="M5010 1876 c0 -8 -6 -17 -12 -19 -7 -3 -3 -6 9 -6 16 -1 20 3 16 19
-6 23 -13 26 -13 6z"/>
<path d="M2340 1870 c0 -6 -16 -10 -35 -8 -19 1 -37 -1 -41 -5 -4 -4 14 -7 39
-7 35 0 47 4 47 15 0 8 -2 15 -5 15 -3 0 -5 -5 -5 -10z"/>
<path d="M2612 1865 c-11 -13 -10 -15 7 -15 14 0 19 5 15 15 -7 18 -6 18 -22
0z"/>
<path d="M4020 1870 c0 -6 -16 -10 -35 -8 -19 1 -37 -1 -41 -5 -4 -4 14 -7 39
-7 35 0 47 4 47 15 0 8 -2 15 -5 15 -3 0 -5 -5 -5 -10z"/>
<path d="M4222 1865 c-11 -13 -10 -15 7 -15 14 0 19 5 15 15 -7 18 -6 18 -22
0z"/>
<path d="M4900 1870 c0 -6 -16 -10 -35 -8 -19 1 -37 -1 -41 -5 -4 -4 14 -7 39
-7 35 0 47 4 47 15 0 8 -2 15 -5 15 -3 0 -5 -5 -5 -10z"/>
<path d="M2695 1860 c-3 -5 1 -10 10 -10 9 0 13 5 10 10 -3 6 -8 10 -10 10 -2
0 -7 -4 -10 -10z"/>
<path d="M4940 1860 c-12 -8 -10 -10 8 -10 13 0 20 4 17 10 -7 12 -6 12 -25 0z"/>
</g>
</svg>
